<svg xmlns="http://www.w3.org/2000/svg" width="84" height="134.386">
  <g>
    <g transform="translate(0 .39)">
      <path fill="#fff" stroke="#1a1311" stroke-linecap="round" stroke-linejoin="round" stroke-width="1.423" d="M26.643 109.087c-2.561 5.834-2.063 9.747 0 14.3-3.7 1.921-6.4 2.988-5.193 6.189s10.672 3.557 14.656 1.067-1.638-7.54-2.278-12.449a35.856 35.856 0 01.356-10.316"/>
      <g>
        <path fill="#fff" d="M54.815 53.24c-4.411-2.846-27.39-5.336-46.385-6.972A49.448 49.448 0 00.106 72.022a45.6 45.6 0 002.419 18.07c20.276-.854 48.022-2.134 53.144-2.775 9.18-1.209 6.83-29.097-.854-34.077z"/>
        <path fill="#df1f1c" d="M83.984 70.315a41.832 41.832 0 00-42.759-41.117c-14.727.285-25.825 6.972-32.8 17 19 1.636 41.975 4.126 46.385 6.972 7.683 4.98 10.031 32.939.854 34.078-5.122.64-32.868 1.921-53.144 2.775 5.127 14.156 18.36 23.405 40.343 22.975 30.521-.5 41.619-19.491 41.121-42.683z"/>
        <g fill="#e23c33">
          <path d="M30.414 48.474l1-18a39.2 39.2 0 00-10.391 4.055l-1.85 12.735z"/>
          <path d="M54.816 53.239c2.063 1.352 3.771 4.34 4.909 8.039l-.854-28.6a41.9 41.9 0 00-15.865-3.485l.854 21.058c5.335.996 9.391 1.921 10.956 2.988z"/>
          <path d="M12.841 89.664l-1.992 13.3a36.5 36.5 0 0016.078 8.466l1.21-22.477z"/>
          <path d="M83.985 70.312a41.832 41.832 0 00-11.526-28.1l-.64 61.254c8.893-7.896 12.45-19.849 12.166-33.154z"/>
          <path d="M55.67 87.317c-1.565.213-5.336.5-10.316.783l1 24.829a50.8 50.8 0 0014.94-3.13l-.858-27.32c-.996 2.7-2.561 4.553-4.766 4.838z"/>
        </g>
      </g>
      <g>
        <path fill="none" stroke="#1a1311" stroke-linecap="round" stroke-linejoin="round" stroke-width="1.423" d="M15.687 83.049c1.707-3.059 5.122-7.328 6.4-7.328s5.407 4.909 6.972 7.541"/>
        <path fill="#1a1311" d="M16.612 83.618a1.067 1.067 0 11-.427-1.423 1.067 1.067 0 01.427 1.423z"/>
        <path fill="#1a1311" d="M28.137 83.832a1.067 1.067 0 10-.139-.823 1.067 1.067 0 00.139.823z"/>
      </g>
      <path fill="none" stroke="#1a1311" stroke-linecap="round" stroke-miterlimit="10" stroke-width="1.423" d="M28.705 52.671s-1.067 3.059.711 4.909"/>
      <ellipse cx="2.205" cy="3.486" fill="#ffaf00" rx="2.205" ry="3.486" transform="rotate(-87.42 47.023 25.902)"/>
      <path fill="#f7d3db" d="M54.388 74.369c.142 2.419-2.134 4.411-5.763 4.624s-6.047-1.707-6.189-4.055 1.779-4.411 5.763-4.624 6.047 1.636 6.189 4.055z"/>
      <path fill="#1a1311" d="M40.872 67.896a3.684 3.684 0 11-3.486-3.769 3.486 3.486 0 013.486 3.771z"/>
      <path fill="#1a1311" d="M13.481 65.762A3.7 3.7 0 019.71 69.39a3.738 3.738 0 01.285-7.47 3.486 3.486 0 013.486 3.842z"/>
      <path fill="#fff" d="M54.531 110.012a21.565 21.565 0 00.071 10.031c1.423 4.7 6.047 9.106 2.134 11.6s-13.446 2.134-14.656-1.067 1.494-4.269 5.193-6.189a16.213 16.213 0 01.356-15.3c.64-1.281 3.13-1.85 4.2-1.921s3.2 1.068 2.702 2.846z"/>
      <path fill="none" stroke="#1a1311" stroke-linecap="round" stroke-miterlimit="10" stroke-width="1.423" d="M55.1 107.878a22.167 22.167 0 00-.569 12.166c1.423 4.7 6.047 9.106 2.134 11.6s-13.446 2.134-14.656-1.071 1.494-4.269 5.193-6.189c-2.063-4.482-3.13-9.6.356-15.3"/>
      <g>
        <path fill="#fff" d="M63.21 91.23c8.039-3.557 11.525-8.181 13.446-14.656 1.209-2.988-3.842-5.976-5.407-2.632-1.636 4.767-5.691 8.893-12.521 10.387-2.7-1.423-4.909-2.063-5.407-.783s1.565 2.917 1.565 2.917a10.813 10.813 0 00-3.344 1.707c-1.565 1.352-.071 3.415 2.7 2.7-2.134 1.921-.071 3.842 2.632 2.134-1.352 1.921-.213 2.7 1.85 2.277s2.85-1.774 4.486-4.051z"/>
        <path fill="none" stroke="#1a1311" stroke-linecap="round" stroke-linejoin="round" stroke-width="1.423" d="M72.317 71.666c-3.13 6.687-6.83 11.17-13.66 12.664-2.7-1.423-4.909-2.063-5.407-.783s1.565 2.919 1.565 2.919a10.813 10.813 0 00-3.344 1.707c-1.565 1.352-.071 3.415 2.7 2.7-2.134 1.921-.071 3.842 2.632 2.134-1.352 1.921-.213 2.7 1.85 2.277s3.059-1.636 4.624-3.913a24.26 24.26 0 0014.086-15.865"/>
      </g>
      <g>
        <path fill="none" stroke="#1a1311" stroke-linecap="round" stroke-linejoin="round" stroke-width="1.423" d="M32.547 54.592c.142 6.189 9.676 7.47 15.652 7.328"/>
        <path fill="#1a1311" d="M31.48 54.663a1.067 1.067 0 111.067 1.067 1.067 1.067 0 01-1.067-1.067z"/>
        <path fill="#1a1311" d="M48.199 62.987a1.067 1.067 0 10-1.067-1.067 1.067 1.067 0 001.067 1.067z"/>
      </g>
      <g>
        <path fill="none" stroke="#1a1311" stroke-linecap="round" stroke-linejoin="round" stroke-width="1.423" d="M16.611 54.947c-1.138 2.988-6.616 5.407-10.529 3.13"/>
        <path fill="#1a1311" d="M15.544 54.52a1.067 1.067 0 11.64 1.352 1.067 1.067 0 01-.64-1.352z"/>
        <path fill="#1a1311" d="M6.58 57.153a1.067 1.067 0 10.536.655 1.067 1.067 0 00-.536-.655z"/>
      </g>
      <g fill="#1a1311">
        <path d="M22.662 8.847c.071.5.213 1.707 2.561 1.921h2.419a1.281 1.281 0 011.138 1c-.071.925-1.85.854-2.917.783s-3.842-.64-3.7-2.561a2.561 2.561 0 01.427-1.138zm2.277-1.992c.142-.142.64-.569.64-.711s-.071-.142-.285-.213c-1.636-.64-1.707-1.565-1.707-1.85a7.114 7.114 0 002.205.569h1.352a1.494 1.494 0 011.281 1.423c0 .427-.285.5-1.067.427h-1.285l-1.211.355z"/>
        <path d="M36.674 7.637l.854.213c.356.071.64.285.64.64s-1.565 1.138-2.348 1.281a16.078 16.078 0 00.142 1.636c1.067.427 1.992 1 1.921 1.779a.783.783 0 01-.854.711.925.925 0 01-.64-.427 3.771 3.771 0 00-.711-.711 2.134 2.134 0 01-2.277 1.138c-1.138-.075-1.921-.711-1.848-1.565s.356-1.636 3.059-1.281a6.51 6.51 0 01.071-1.209 4.055 4.055 0 01-1.565-.285 1.565 1.565 0 01-.925-1.707 3.415 3.415 0 001.85.64h.71l.142-1.068c-1.85-.142-1.992-1.209-1.992-1.636v-.212a3.486 3.486 0 002.134.64v-.64a1.707 1.707 0 00-.427-1.209 1.024 1.024 0 01.643-.143c.427 0 1.494.142 1.423.854s-.071.213-.213.5l-.142.5h.783a.64.64 0 01.64.711c0 .356-.427.783-1.707.925-.071.285-.071.711-.142.925s.711-.285.783-.427a.64.64 0 00-.071-.285zm-3.13 4.269c-.5-.071-1.067.071-1.067.356s.427.427.711.427 1.209 0 1.352-.569a3.344 3.344 0 00-1-.142z"/>
        <path d="M44.143 5.858c1-.285 1.067-.356 1.352-.285s1.494.64 1.423 1.209-.356.569-1 .925a5.62 5.62 0 00-1.917 1.922 2.7 2.7 0 011.138-.142 2.775 2.775 0 012.632 2.846c-.142 1.565-1.779 2.49-3.415 2.348s-2.063-.783-1.992-1.636a1.281 1.281 0 011.494-1.067 2.063 2.063 0 011.566 1.206 1.607 1.607 0 00-.569-3.059c-1.067-.071-2.063 1.067-2.419 1.707s-.5.783-1 .711a.64.64 0 01-.64-.711c.071-.427.142-.569 1.352-1.779a25.027 25.027 0 002.493-2.769c1.281-1.565.569-.64.569-.783s0-.071-.071-.071-.285.071-.925.569-.854.64-1.138.569-1.209-1.067-1.138-1.423v-.073a5.549 5.549 0 002.205-.213zm-.5 6.9a.356.356 0 00-.427.285c0 .285.427.569.854.569h.213a.783.783 0 00-.64-.854z"/>
        <path d="M50.334 15.463a10.458 10.458 0 002.561-4.98l-1.707.213-1 .142a2.063 2.063 0 01-1.275-1.636.356.356 0 01.071-.285 4.34 4.34 0 001.281.356h2.848a8.893 8.893 0 00.142-1 2.419 2.419 0 00-.285-1.779.925.925 0 01.711-.213 2.134 2.134 0 011.494 1.281 5.477 5.477 0 01-.285.711 5.569 5.569 0 00-.213 1h.925l.854-.142c.142 0 1.779.356 1.707 1.138a.569.569 0 01-.711.569l-.711-.142-.854-.142h-1.498c-.783 3.13-2.063 4.482-4.055 5.122z"/>
        <path d="M59.511 16.175c2.063-1.494 2.7-3.059 2.7-3.771a1.779 1.779 0 00-.142-.783.427.427 0 01.5-.213 2.277 2.277 0 01.854.285 3.131 3.131 0 00.783-.711h-.142a12.1 12.1 0 00-3.13.356l-.569.142a1.565 1.565 0 01-1.067-1.566l1.281.285a18.213 18.213 0 003.771-.142l.569-.213a3.415 3.415 0 011.209 1.707c0 .142-.071.142-.64.213a9.462 9.462 0 00-1.85.5l-.711 1.423a5.193 5.193 0 01-3.486 2.632z"/>
        <path d="M67.48 12.119a.925.925 0 11.22.676.925.925 0 01-.22-.676zm3.486.285a.925.925 0 11.22.676.925.925 0 01-.221-.677zm3.486.285a.925.925 0 11.22.676.925.925 0 01-.221-.677z"/>
      </g>
      <path fill="none" stroke="#1a1311" stroke-miterlimit="10" stroke-width=".711" d="M49.551 26.917c6.474-13.731-21.414-8.039-31.161-11.1C10.706 13.471 10.849 1.163 22.872.31c16.221-1.139 44.748.925 54.069 5.193s8.324 15.932-3.771 15.865c-8.679-.071-16.221-1.494-20.134 2.348"/>
    </g>
  </g>
</svg>
