<svg xmlns="http://www.w3.org/2000/svg" width="300" height="300" baseProfile="tiny" overflow="visible" version="1.2">
  <path fill="transparent" d="M0 0h300v300H0z"/>
  <path fill="#231815" d="M282.45 51.72c0-.72-1.1-1.26-3.47-1.82-2.54-.36-4.73-.54-6.92-.54-1.64 0-3.1.18-4.38.54-5.27.91-10.39 1.64-15.32 2.37-5.12.91-10.4 1.45-16.41 1.99 2.36 1.29 4.38 2.19 6.38 2.91 1.82.55 3.82.92 6.38.92s5.66-.19 9.31-.73c3.82-.37 7.84-.92 12.03-1.64 4.2-.74 7.3-1.28 9.49-1.82 2.01-.53 2.91-1.26 2.91-2.18M274.83 61.78c-.72 0-1.44 0-2.35.36-1.09.18-1.65.37-2.2.37-20.61 3.28-32.1 4.74-34.12 4.92-.54-.18-1.81-.18-3.65-.54-2-.18-3.27-.37-4.2-.37.19.37.74 1.09 2.01 2.2 1.09 1.27 1.82 2.36 2.18 3.09-.91 2.55-1.64 4.74-2 6.38-.55 1.81-1.09 3.64-1.83 5.47-.55 1.82-1.27 3.83-2.18 5.82-.91 2.02-2.01 4.39-3.28 6.95-1.27 2.37-2.75 4.92-4.2 7.66h-8.77c-6.38-.18-10.03-.18-10.95-.18-.18-3.11.18-7.3.92-12.6.73-5.28 1.09-8.21 1.09-8.74 0-.56-.54-.92-1.27-1.29a91.9 91.9 0 00-4.56-1.64c1.83-.55 3.64-1.09 5.84-1.45 2.19-.37 4.56-.92 6.93-1.47 2.38-.54 4.2-.9 5.3-1.27 1.28-.54 1.82-.91 1.82-1.64 0-.91-.36-1.65-1.28-2.01-.72-.56-1.64-.91-2.92-1.29-1.09-.36-2.19-.72-3.1-.9-.72 0-1.64-.19-2.55-.19-.36 0-2.01.55-4.93 1.28-2.91.91-5.46 1.64-7.66 2.38-2.37.73-5.11 1.46-8.21 2.01-3.28.72-6.2 1.27-8.75 1.63 2 1.29 4.01 2.19 6.01 2.74 2.01.36 4.38.54 7.3.54 1.45 1.28 2.37 3.11 2.73 5.66.55 2.37.73 5.47.73 8.94 0 2 0 3.83-.17 5.47 0 1.64-.18 3.1-.36 4.37-1.83.37-6.57 1.28-14.05 2.92-4.56 1.09-7.84 1.64-9.85 2.19-.17-.18-.17-.36-.17-.36v.36c-1.46.18-2.2.36-2.57.36-.9 0-1.82-.18-2.37-.18-.72-.18-1.63-.36-2.56-.54 1.46 2.37 2.92 4.37 4.39 5.64.36.37.91.75 1.27 1.1-.18.91-.55 2.01-.91 2.92-.72 2.56-1.64 3.83-2.72 3.83-1.83 0-4.94-4.19-9.49-12.58-4.57-8.22-7.47-15.32-8.39-21.16 1.1-.54 2.54-.91 4.01-1.46 1.47-.36 3.28-.91 5.31-1.28.72-.18 1.44-.36 2.17-.54.74-.19 1.28-.37 2.01-.55.55-.18.9-.55 1.46-.91.36-.37.54-.73.54-1.1 0-.73-.72-1.28-2.2-1.83-1.62-.36-3.27-.72-4.55-.72-.72 0-2 .54-4.38 1.64-2.19.9-4.01 1.64-5.29 2.01-.36-1.1-.73-2.2-.9-3.11-.36-.91-.55-2.01-.55-3.28-.18-1.1-.37-2.55-.55-3.83 0-1.47 0-2.75-.17-3.84 0-1.09-.18-2.19 0-3.28v-4.19c0-1.27-.37-2.18-1.1-2.73-.91-.55-1.82-1.1-3.1-1.46-1.09-.54-2.19-.91-2.73-1.09-.73-.37-1.64-.55-2.55-.73-.73-.19-1.83-.37-2.74-.37-1.28-.18-2.19-.18-2.74-.18 2.2 2.19 3.84 4.37 4.75 6.73 1.09 2.19 2.01 4.56 2.73 7.12.55 2.37 1.46 5.47 2.37 9.11.73 3.66 1.28 6.02 1.65 6.94-3.28 1.28-6.2 2.37-8.39 3.27-2.56.92-4.19 1.28-4.93 1.28-1.29 0-2.37 0-3.28-.18-1.1-.36-2.18-.54-3.27-.74.17.56.9 1.47 1.81 2.57 1.09 1.09 2 2.01 2.74 2.74.71.72 1.46 1.28 2.19 2 .56.56 1.46.92 2.37.92.91 0 2.74-1.1 5.66-3.09 3.09-2.02 5.11-3.29 6.38-3.66.36 1.1 1.26 3.66 2.91 7.66 1.46 3.83 2.73 7.3 4.01 9.84 1.08 2.74 2.37 5.48 3.84 8.39 1.45 3.1 3.1 6.02 5.11 8.95 1.64 2.91 3.64 5.28 5.65 7.11 1.82 1.81 4.01 2.73 6.56 2.73.91 0 1.82-1.1 2.38-3.29.36-2.17.72-4.75.72-7.66 0-2.74-.17-5.46-.55-8.03-.17-.17-.17-.17 0-.17 1.28-.36 3.84-1.28 7.85-2.74 5.11-1.82 8.39-3.11 10.04-3.47 2.18-.73 4.74-1.26 7.3-1.64 2.55-.36 5.1-.54 7.84-.54 4.56 0 8.74.36 12.4.73-1.46 1.82-2.93 3.65-4.56 5.66 2.38 0 4.93-.73 7.48-2.01 1.09-.73 2.37-1.45 3.29-2.37 2.55.73 4.38 1.28 5.83 1.64 1.83.37 3.28.73 4.56.73 1.29 0 2.38-.18 3.11-.54.9-.19 1.28-.73 1.28-1.29 0-.71-.37-1.63-1.1-2.37-.73-.73-1.82-1.45-3.11-2.36-1.28-.92-2.55-1.65-3.83-2.19-.19 0-.37-.18-.55-.18.73-1.29 1.64-2.75 2.74-4.39 1.81-3.28 3.11-5.48 3.83-6.57.55.2 1.27.92 2.74 1.84 1.27.72 2.37 1.26 3.28 1.26.18 0 1.82-.54 4.92-1.44 2.93-.92 5.66-1.46 7.66-1.66-2.54 5.66-5.65 11.14-9.66 16.43-3.83 5.29-7.85 9.47-11.87 12.58 1.28 0 2.93-.18 4.94-.73 1.82-.36 3.66-.91 5.29-1.81 1.65-.74 3.12-1.84 4.39-2.93 1.1-1.29 2.55-2.74 4.38-4.57 1.63-2.01 3.1-3.65 4.38-4.92 1.09-1.47 2.36-2.92 3.46-4.38.9.73 2.92 1.65 6.2 2.56 3.1 1.09 4.56 2.01 4.73 2.36-.17 1.83-.9 5.11-2.36 9.66-1.64 4.56-3.29 6.75-5.12 6.75-2.18 0-4.37-.36-6.73-1.09-2.56-.74-5.13-1.82-7.84-2.91 2.72 3.09 6.38 6.38 10.76 9.48 4.55 3.28 7.66 4.91 9.48 4.91 1.28 0 2.19-.36 3.08-1.46.75-1.09 1.65-2.54 2.75-4.93.54-1.45 1.82-4.74 3.47-9.47 1.81-4.75 3.09-7.67 4-8.59.91-1.09 1.27-2.55 1.27-4.19 0-.36-.18-.72-.72-1.09-.72-.36-1.45-.91-2.54-1.45-1.28-.55-2.37-1.1-3.48-1.46-1.09-.19-2.36-.37-3.64-.37-2 0-3.83-.36-6.01-.91-2.01-.73-3.65-1.28-4.75-1.82 0-.37.37-1.09.91-2.01.73-1.1 1.1-1.82 1.1-2.19 0-.55-.18-.73-.55-1.09-.55-.18-1.64-.92-3.1-1.84.74-.18 2.2-.18 4.75-.36 2.37-.18 4.02-.18 4.93-.18 3.28 0 7.48.18 12.76.91 5.29.55 8.21.91 8.76.91.9 0 1.82-.18 2.54-.54.56-.55.92-.74.92-1.09 0-.55-.36-1.29-1.11-1.83-.9-.54-1.81-1.09-3.09-1.64-1.46-.36-2.56-.91-3.65-1.1-1.28-.36-2.38-.36-3.47-.36-.92 0-3.1 0-6.56.36-3.65.19-6.38.56-8.39.56 0-2.01-1.09-3.66-2.92-4.74-2.01-1.28-4.56-2.2-8.02-2.92 1.46-.55 2.73-.9 3.82-1.09 1.1-.18 2.19-.37 3.47-.56.73.19 1.65.56 3.1 1.28 1.46.55 2.74.91 3.65.91 1.1 0 2.2-.36 3.1-1.09 1.09-.54 2.19-1.46 2.93-2.19.9-.91 1.81-2 2.73-3.28 1.09-1.28 1.82-2.37 2.73-3.1.74-.91 1.64-1.64 2.37-2.56.74-.72 1.1-1.46 1.1-2.37 0-.37-1.47-1.09-4.03-2.01-2.74-1.05-5.11-1.41-6.95-1.41m-4 4.55c.36.19.55.38.72.74-.17.54-.54 1.28-1.63 2.36-.91 1.28-2.01 2.38-3.1 3.84-1.09 0-5.11.55-11.85 1.65-6.94 1.09-11.5 1.63-13.69 1.45.18-1.09.54-2.19.73-2.91.18-.54.18-1.28.36-2.2 2.02 0 4.56-.36 7.84-1.27 3.12-.91 5.49-1.64 7.3-2.01 1.46-.55 3.65-.9 6.19-1.27 2.39-.38 4.38-.56 5.84-.56.38 0 .92 0 1.29.18m-14.59 17.7c1.28 1.27 2.92 2.36 4.93 3.46-7.84 1.28-13.32 2-16.42 2.38-3.11.54-4.92.71-5.65.71-.36 0-.73 0-1.28-.18-.36 0-1.1-.18-2.19-.54.73-1.65 1.46-3.1 2.01-4.57.54-1.27 1.27-2.73 1.83-4.2.91.18 1.45.37 2 .37.55.18 1.28.18 2.19.18.92 0 2.37-.37 4.2-.91 1.81-.74 3.1-1.09 4.01-1.28 1.64 1.84 3.28 3.3 4.37 4.58"/>
  <path fill="#231815" d="M159.69 61.56c-1.81-.37-3.46-.92-4.91-1.1-1.28-.36-2.57-.36-3.48-.36 1.29 1.28 2.38 2.55 3.48 3.64.9 1.09 2 2.38 3.1 3.84 1.27 1.45 2.37 2.55 3.28 3.46.9.73 2 1.09 3.28 1.09.55 0 1.1-.19 1.28-.55.36-.37.53-.91.53-2.01 0-2.56-.53-4.37-1.82-5.64-1.27-1.1-2.91-1.83-4.74-2.37M72.38 51.59c.74-3.47.93-5.84.93-7.11 0-.91-1.65-1.83-4.93-2.57-3.48-.9-6.94-1.27-10.22-1.27 2.19 1.83 3.64 4.2 4.2 6.93.55 2.72.73 7.46.73 14.38-2.01.55-4.57 1.45-7.84 2.37-3.11.91-5.3 1.64-6.38 2 2.92 1.1 5.46 1.83 7.3 2.2 2 .55 4.37.73 6.75.55 0 1.82-.19 3.63-.19 5.11-.18 1.64-.36 3.09-.72 4.92-2.19.73-5.29 1.65-9.31 2.56-4.19 1.09-6.93 1.64-8.57 1.64-.72 0-1.64-.18-2.19-.18-.91-.18-1.65-.36-2.56-.54v-3.84c0-1.64 0-3.82.36-6.38.19-2.55.19-4.2.19-5.11 0-1.1-.73-1.82-2.18-2.19-1.47-.73-2.92-.9-4.39-.9-.92 0-3.5.72-7.33 2-3.84 1.1-6.54 2.01-8 2.38-.54-.37-1.08-.73-1.63-1.1-.73-.36-1.29-.54-1.65-.72.55 3.45 1.1 6.56 1.65 9.48.37 2.91.55 5.83.72 8.57 0 1.45-.17 3.46-.54 6.37-.18 2.74-.37 4.74-.37 6.2-.18 1.1 0 2.01.37 2.92.37.9 1.09 2.37 2.17 4.39-1.08.54-1.98.89-2.54 1.09-.54.37-1.1.55-1.82.55-.37 0-1.27-.18-2.37-.55-1.28-.37-2.01-.55-2.01-.37.18 1.28 1.09 3.1 2.74 5.29 1.27 2.18 2.36 3.28 2.91 3.28 1.28 0 3.09-.73 5.62-2.19 2.56-1.64 5.47-3.65 8.96-6.2 1.27 2.74 2.75 5.11 4.23 6.75 1.63 1.46 2.91 2.2 4.19 2.2.36 0 .72-.91 1.08-2.56.19-1.46.19-3.28.19-5.46 0-2.19 0-5.83-.19-11.13-.17-5.1-.36-8.94-.36-11.49.55.56 1.65 1.64 3.3 3.47 1.62 1.82 2.91 2.74 3.82 2.74.73 0 4.01-1.1 9.85-3.27 5.84-2.2 10.59-3.66 14.04-4.2.91 1.46 1.82 2.91 2.38 4.2.55 1.27.9 2.9.9 4.54-1.82.37-6 1.46-12.58 3.3-6.56 1.64-10.02 2.55-10.77 2.55-.36 0-1.09-.19-2.18-.55-1.09-.36-1.82-.55-2.01-.55 0 1.83.73 3.84 2.01 6.02 1.28 2.19 2.18 3.28 2.73 3.28 0-.18.56-.36 1.46-.91.72-.36 1.64-.72 2.19-1.09.73 1.65 1.27 2.93 1.82 4.01.54 1.27 1.27 2.38 2.18 3.65.74 1.27 1.65 2.38 2.19 2.91.91.73 1.65.9 2.56.9.74 0 1.28 0 1.63-.17.55-.37.73-.55.73-1.09 0-.75 0-1.65-.18-2.75 0-1.27-.36-2.19-.91-3.1-.74-.9-1.64-1.63-3.11-2.19-1.46-.72-3.64-1.45-6.73-2.36 4.19-1.83 7.65-3.28 10.57-4.38 2.92-.91 5.84-1.83 8.93-2.55.18 2.01.37 5.29.56 9.48v10.76c0 3.11-.18 5.29-.56 6.38-.36 1.28-1.09 2.01-2.19 2.01-2.73 0-5.29-.19-7.47-1.1-2.55-.91-5.47-2.19-8.76-3.83 3.84 5.11 8.02 9.3 12.77 12.58 4.75 3.46 8.39 5.29 11.13 5.29 1.46 0 2.55-1.08 3.1-3.1.73-1.82.92-4.37 1.1-7.29 0-.55-.18-4.56-.55-12.04-.37-7.48-.55-12.4-.37-14.59l.19-5.84c1.63-.18 3.29-.18 5.11-.18h4.37c.37 0 .91-.18 1.46-.55.73-.18.91-.55 1.09-1.08 0-.74-.36-1.29-.91-1.84-.55-.54-1.27-1.09-2-1.65-.92-.36-1.65-.72-2.2-.9-.73-.18-1.27-.18-2-.18-.55 0-1.27 0-1.81.18-.55.18-1.65.54-3.11.9 0-1.45-.19-2.54-.55-3.46-.36-.91-.73-1.45-1.28-2-.54-.37-1.28-.73-2.36-1.1-1.09-.54-2.01-1.1-2.74-1.46 1.46-.73 3.83-1.09 6.74-1.46 2.93-.19 5.85-.37 8.58-.37 1.46 0 3.65.18 6.38.37 2.93.37 5.1.37 6.56.37.55 0 1.28 0 1.82-.37.55-.19.91-.55.91-1.09 0-.72-.36-1.46-1.27-2.19-.72-.54-1.83-1.09-3.11-1.81-1.28-.55-2.36-.92-3.45-1.1-1.1-.37-2.19-.55-3.28-.55-.74 0-1.29.18-2.02.18-.73.19-2.19.55-4.56.92-2.56.55-5.48.91-8.57 1.46-3.1.36-7.12.9-11.68 1.63.36-2.72.54-4.93.72-6.38.37-1.45.56-2.73.56-3.83 2.19-.36 4.01-.72 5.28-1.1 1.27-.36 2.74-.89 4.38-1.27 1.45-.73 2.73-1.27 3.83-1.83.93-.72 1.46-1.63 1.46-2.71 0-.55-.74-1.28-2.37-1.65-1.47-.54-2.74-.72-4.01-.72-.73 0-2.01.18-3.83.54-1.65.18-3.11.55-4.02.73.2-1.65.57-4.2 1.11-7.84m-46 18.94c1.29-.54 2.2-.91 3.11-.91.56 0 1.11.91 1.47 2.38.18 1.64.36 4.74.36 9.48-1.27.18-2.56.36-3.47.73-.93.37-2.4.91-4.4 1.64-.18-.73-.36-2.56-.36-5.11-.19-2.73-.54-4.55-1.09-6.03 1.64-.89 3.1-1.82 4.38-2.18m4.95 15.5v11.5c-.9.91-2.01 1.82-3.11 2.37-1.09.73-2.76 1.64-4.94 2.73-.18-2.55-.18-4.55-.18-6.37 0-1.82.18-4.57.18-8.03 1.82-.18 3.1-.18 4.4-.54 1.08-.2 2.37-.92 3.65-1.66"/>
  <path fill="#231815" d="M109.58 69.08c.91.73 1.47 1.45 2.02 2.37.35.91.54 1.83.54 2.56 0 2.55-2 7.65-6.02 15.13-4.2 7.66-9.29 13.87-15.14 18.61.74 0 1.47.18 2.38.18 2.75 0 5.29-.72 7.83-2.37 2.37-1.45 4.76-3.83 7.3-6.74-.36 5.12-.71 9.11-.9 12.03-.36 3.11-.73 5.3-1.28 6.57-.36.92-.54 1.84-.54 2.73 0 1.09.54 3.29 1.82 6.58 1.28 3.47 2.38 4.92 3.47 4.92s1.83-1.45 2.37-4.19c.36-2.74.54-6.38.54-10.22 0-4.55-.17-8.75-.36-12.21-.18-3.65-.92-6.93-2.19-9.85 2.37-4.02 4.01-7.12 5.11-8.94 1.28-2 2.19-3.64 3.1-5.29.9-1.83 1.46-3.28 2-4.55.36-1.27.72-2.37.72-3.28 0-1.28-1.27-2.2-3.82-2.93-2.74-.58-5.65-.93-8.95-1.11M60.09 156.16c-1.19 1.53-2.5 2.71-3.9 3.55-1.29.88-2.72 1.5-4.29 1.87-.43.01-.64.19-.64.51 0 .38.24.77.74 1.16.47.39.94.58 1.42.58.56 0 1.26-.32 2.09-.97l.84-.64c.04 1.55.06 2.97.06 4.26 0 2.47-.03 5.92-.1 10.34 0 1.34.29 2 .86 2 .75 0 1.13-.66 1.13-2l-.13-10.34c0-1.5.04-3.18.13-5.03 0-.34-.06-.61-.17-.8 1.05-1.01 2.03-2.08 2.93-3.23.17-.27.26-.56.26-.87 0-.43-.25-.64-.74-.64-.1-.01-.27.08-.49.25m1.88 10.06c-.62 0-1.13.22-1.52.67-.32.28-.48.6-.48.97 0 .6.37.91 1.12.91 1.81-.76 3.16-1.19 4.06-1.3 1.12-.11 2.26-.18 3.42-.22-.17.13-.31.33-.42.61-.64 1.52-1.25 2.76-1.83 3.71-.56.88-1.1 1.64-1.61 2.29-.32.43-.69.87-1.09 1.32-.32.39-.48.71-.48 1 0 .58.42.87 1.25.87.99-.06 1.83-.1 2.52-.1h9.31c.58 0 .87-.3.87-.9 0-.19-.06-.38-.16-.55-1.05-1.63-2-2.97-2.84-4-.13-.15-.26-.23-.38-.23-.67 0-1 .3-1 .87 0 .07.03.15.1.26.71.82 1.28 1.56 1.71 2.23.05.06.06.12.06.16 0 .25-.21.38-.61.38h-7.18c-.34 0-.51-.09-.51-.26.64-.86 1.18-1.64 1.61-2.35.56-.88 1.29-2.13 2.19-3.74.06-.17.1-.32.1-.45 0-.58-.17-.96-.51-1.13h.16c1.55 0 2.97.11 4.26.32 1.18.17 2.26.53 3.25 1.06.6.33 1.12.49 1.55.49.3 0 .65-.27 1.06-.8.56-.77.84-1.5.84-2.19 0-.43-.09-.64-.26-.64-.96.26-1.8.39-2.51.39-.97 0-2.13-.03-3.48-.09-1.76-.11-3.29-.16-4.58-.16-1.87-.02-4.52.19-7.99.6m2.57-6.03c-.34.28-.53.56-.55.86.06.64.44.99 1.13 1.03.15 0 .46-.11.93-.32.86-.21 2.23-.33 4.13-.33 1.11 0 2.16.03 3.12.1.92.19 1.52.29 1.77.29.45 0 .83-.15 1.13-.45.26-.3.38-.65.38-1.06-.02-.23-.19-.36-.51-.38h-10.3c-.52 0-.93.08-1.23.26M113.6 173.36c-.4 1.89-.9 3.04-1.48 3.45-.47.34-1.7.51-3.67.51-2.49 0-4.19-.33-5.1-1-.66-.5-1.09-1.29-1.28-2.39-.13-.87-.23-1.74-.29-2.6-.19-.78-.62-1.16-1.28-1.16-1.03 0-2.24.57-3.61 1.71-.73.62-1.78 1.69-3.16 3.22-1.05 1.14-1.7 1.71-1.93 1.71-.71 0-1.06-.52-1.06-1.55 0-.56.25-1.04.74-1.45 2.97-2.41 5.1-4.14 6.41-5.19 2.41-1.87 4.61-3.51 6.61-4.93-3.83 0-7.41.66-10.77 2-.4 0-.61-.31-.61-.9 0-1.12.68-1.75 2.06-1.9l6.9-.64c1.82-.15 3.28-.23 4.38-.23.67 0 1 .26 1 .78 0 .27-.32.65-.94 1.12-1.55 1.19-3.86 2.97-6.93 5.35.62-.17 1.14-.26 1.55-.26 1.11 0 1.9.52 2.35 1.55.23.58.43 1.58.58 3 .08.99.64 1.48 1.67 1.48 1.93 0 3.91-.5 5.93-1.51.78-.39 1.27-.58 1.48-.58.23-.01.38.13.45.41m-6.7-15.34c0 .36-.15.69-.45.96-.32.23-.66.36-1.03.36-.23 0-.65-.06-1.26-.19-.39-.06-1.32-.09-2.8-.09-1.67 0-3.02.09-4.03.26-.14.02-.43.08-.9.16-.36.08-.65.13-.84.13-.36 0-.55-.25-.55-.75 0-1.01.45-1.52 1.36-1.55 1.07-.06 2.48-.1 4.22-.1h2.54c2.49.01 3.74.28 3.74.81M143.78 171c0 2.3-1.05 4.04-3.16 5.22-1.72.99-3.8 1.48-6.25 1.48a7.2 7.2 0 01-3.38-.84c-1.27-.64-1.9-1.5-1.9-2.57 0-1.66 1-2.48 3-2.48 2.41 0 4.32 1.18 5.74 3.54 1.08-.34 1.94-.87 2.58-1.58.73-.79 1.09-1.72 1.09-2.77 0-1.2-.48-2.14-1.45-2.8-.83-.54-1.91-.8-3.22-.8-1.67 0-3.39.29-5.15.87-1.83.64-3.35 1.51-4.55 2.61-.6.52-1 .78-1.2.78-.7 0-1.06-.37-1.06-1.1 0-.41.35-.93 1.06-1.55l10.48-8.96c.12-.11.27-.23.45-.38-.15-.09-.38-.13-.67-.13-.97 0-2.24.07-3.81.19-1.97.09-3.14.21-3.48.39-.62.02-.93-.31-.93-1 0-.62.64-.96 1.93-1 2.34-.06 5.49-.1 9.45-.1.88 0 1.32.24 1.32.71 0 .27-.3.64-.9 1.09-3.51 2.67-6.57 5.18-9.22 7.54 2.12-.88 4.37-1.32 6.73-1.32 1.65 0 3.1.4 4.35 1.2 1.43.91 2.15 2.17 2.15 3.76m-7.86 4.9c-1.22-1.91-2.51-2.87-3.84-2.87-1.03 0-1.54.42-1.54 1.26 0 1.14 1.28 1.71 3.83 1.71.21 0 .73-.03 1.55-.1M175.01 160.4c-.19 0-.44.05-.75.16-.34.11-.59.16-.76.16.26 0-1.81-.04-6.22-.13 0-.17.03-.75.1-1.74.06-.69.09-1.26.09-1.71 0-.54-.33-.81-1-.81-.79 0-1.19.27-1.19.81 0 .88.05 2.05.16 3.51-1.51 0-2.58.03-3.22.09-1.14.18-1.95.26-2.42.26-.21 0-.54-.1-.96-.29-.41-.17-.71-.25-.9-.25-.56 0-.84.31-.84.93 0 .21.1.94.29 2.19.11.84.16 1.9.16 3.19 0 .32.21.48.65.48.77 0 1.15-1.41 1.15-4.22 0-.18.52-.33 1.55-.48 1.74-.23 3.64-.36 5.7-.36 2.36 0 4.13.05 5.29.16 1.31.08 1.97.26 1.97.51 0 1.79-.8 3.65-2.42 5.61-1.39 1.65-3 2.97-4.81 3.96-2.08 1.12-4.09 1.83-6.03 2.13-1.52.23-2.29.47-2.29.71 0 .41.33.87 1 1.39.66.51 1.21.77 1.64.77 1.74 0 4.14-1.05 7.19-3.16 2.19-1.53 3.98-3.35 5.38-5.48 1.48-2.41 2.22-4.86 2.22-7.35.01-.69-.24-1.04-.73-1.04M208.12 173.46c0 .52-.29 1.12-.87 1.83-.6.69-1.16 1.04-1.68 1.04-.19 0-.75-.22-1.67-.67-1.72-.82-4.2-1.23-7.44-1.23-1.59 0-3.18.3-4.77.91-.53.23-1.32.57-2.35 1-.62-.07-.94-.4-.94-1 0-.52.21-.89.61-1.1.67-.36 2-.66 4-.89 1.66-.21 3.07-.33 4.23-.33-.02-.81-.05-2.06-.1-3.73 0-1.64-.01-2.87-.03-3.71h-.36c-1.12 0-2 .06-2.64.19-1.12.19-1.71.29-1.77.29-.6 0-.9-.27-.9-.8 0-.67.43-1 1.29-1 .98 0 2.48-.05 4.48-.13 2-.07 3.52-.1 4.55-.1 1.57 0 2.43.08 2.61.23-.04.45-.21.85-.51 1.19-.3.28-.68.42-1.13.42-.39 0-1-.03-1.84-.1-.77-.11-1.36-.17-1.77-.17v7.45c.71.04 1.75.09 3.13.12.23.03.89.07 1.96.13.77.05 1.42.06 1.93.06.13 0 .35-.01.68-.06.3-.02.52-.03.67-.03.41-.01.63.06.63.19M240.23 160c0 .73-.48 2.24-1.44 4.51-2.06 4.9-5.34 8.68-9.83 11.31-2.08 1.25-3.52 1.87-4.32 1.87-.4 0-1-.26-1.8-.81-.77-.53-1.16-.98-1.16-1.35 0-.21.5-.46 1.51-.75 1.64-.47 3.1-.98 4.39-1.51 1.83-.79 3.62-1.99 5.38-3.58 1.83-1.65 3.17-3.36 4.03-5.13.88-1.79 1.36-2.97 1.45-3.57-.17-.11-1.17-.16-3-.16h-2.16c-2.06 0-3.95.13-5.67.39-2.15.34-3.36.51-3.64.51-.51 0-.78-.34-.78-1.03 0-.45.12-.78.33-1 .45-.4 2.55-.61 6.28-.61.88 0 2.2.02 3.94.06 1.78.04 3.11.06 4 .06.19 0 .48-.02.87-.06.39-.04.68-.06.87-.06.5.01.75.31.75.91m3.97-.83c0 .21-.22.5-.68.83-.38.3-.72.46-1 .46-.34 0-.84-.54-1.48-1.61-.62-1.1-.93-1.86-.93-2.29 0-.24.08-.36.23-.36.17 0 .34.12.51.36.84 1.03 1.73 1.73 2.68 2.12.38.15.61.31.67.49m4.03-1.43c-.03.19-.24.47-.64.84-.39.36-.68.58-.9.64-.45-.1-1.06-.61-1.81-1.51-.73-.93-1.1-1.6-1.1-2.03 0-.15.06-.22.2-.22.04 0 .4.23 1.09.7.7.45 1.12.72 1.25.8.63.25 1.26.5 1.91.78"/>
  <path fill="#9E9E9F" d="M210.1 188.82a.847.847 0 00-1.21-.08c-4.84 4.22-10.27 8.38-16.05 12.45-.04.01-.09-.01-.14.01-14.62 7.06-47.97 10.12-61.75 10.12-.43 0-.8.34-.85.79-.03.44.26.84.69.93 17.1 3.26 35.63 1.55 50.56-4.21-5.23 3.31-10.64 6.46-16.11 9.53.14-1.08.23-2.19.27-3.28.01-.43-.29-.8-.71-.88a.843.843 0 00-.97.58c-.6 1.87-1.37 3.73-2.2 5.6-2.46 1.38-4.93 2.77-7.41 4.06-.05 0-.09-.05-.16-.03-12.71 1.79-29.45 2.33-49.76 1.61-.43-.01-.8.29-.88.72-.08.42.18.83.59.96 13.51 4.16 26.94 5.05 38.19 2.79-3.71 1.77-7.39 3.51-10.98 5.11-.38-.01-.79.04-1.17.04-1.1.01-2.21.01-3.35.1-.31.03-.63.1-.94.13-1.26.14-2.51.29-3.8.53-.15.03-.31.08-.48.11-1.44.29-2.9.62-4.37 1.04-.16.05-.32.11-.49.16-8 2.35-16.16 6.53-22.97 12.01-.32.27-.41.71-.23 1.07.19.36.6.55 1 .45 1.54-.41 3.2-.91 4.91-1.44.4-.12.81-.25 1.22-.38 1.54-.49 3.13-1.01 4.77-1.58.24-.08.47-.16.71-.24 4.06-1.42 8.41-3.06 12.99-4.92.19-.07.38-.16.57-.23 4.13-1.67 8.41-3.49 12.78-5.46.02 0 .04-.04.04-.05 9.02-4.06 18.53-8.73 27.96-13.82-4.3 8.54-10.55 16.96-16.24 24.59l-7.45 10.3c-.25.34-.2.8.1 1.1.28.31.78.33 1.12.09 15.19-10.94 24.6-24.46 27.03-38.57 16.61-9.25 32.69-19.75 45.1-30.58a.88.88 0 00.07-1.23"/>
</svg>
