<?xml version="1.0" encoding="utf-8"?>
<svg version="1.1" baseProfile="tiny" xmlns="http://www.w3.org/2000/svg" xmlns:xlink="http://www.w3.org/1999/xlink" x="0px"
	 y="0px" width="185.9px" height="173px" viewBox="0 0 185.9 173" overflow="visible" xml:space="preserve">
<g>
	<path fill="#FFFFFF" d="M1.1,31.5v7.8H0.9c-0.5,0-0.9,0.4-0.9,0.9v6.5c0,0.5,0.4,0.9,0.9,0.9h0.2v3.6H0.9c-0.5,0-0.9,0.4-0.9,0.9
		v6.5c0,0.5,0.4,0.9,0.9,0.9h0.2v92.8v2.4v5.7c0,6.8,5.5,12.3,12.3,12.3h74.4c6.8,0,12.3-5.5,12.3-12.3V52h0.6
		c0.4,0,0.7-0.3,0.7-0.7V44c0-0.4-0.3-0.7-0.7-0.7h-0.6v-31C100.2,5.5,94.7,0,87.8,0H13.4C6.6,0,1.1,5.5,1.1,12.3v5.7v2.4v4.5H0.7
		c-0.4,0-0.7,0.2-0.7,0.6v5.5c0,0.3,0.3,0.6,0.7,0.6H1.1z M6.4,13.3c0-4.6,3.7-8.4,8.4-8.4H28h3.9h12.3h12.8h12.3h3.9h13.2
		c4.6,0,8.4,3.7,8.4,8.4v146.4c0,4.6-3.7,8.4-8.4,8.4H14.8c-4.6,0-8.4-3.7-8.4-8.4V13.3z"/>
	<path fill="#FFFFFF" d="M110.4,5.5C110.4,5.5,110.4,5.5,110.4,5.5C110.4,5.5,110.3,5.6,110.4,5.5c-0.1,0.2-0.2,0.2-0.3,0.3
		c0,0,0,0,0,0c0,0,0,0,0,0C110.1,5.9,110,6,110,6.1c0,0,0,0,0,0.1c0,0.1-0.1,0.2-0.1,0.3c0,0,0,0,0,0c0,0.1,0,0.2,0,0.3
		c0,0,0,0.1,0,0.1c0,0.1,0,0.2,0,0.3c0,0.1,0,0.2,0.1,0.3c0,0,0,0,0,0.1c0,0,0,0,0,0c0,0.1,0.1,0.1,0.1,0.2c0,0,0,0,0,0
		c0.1,0.1,0.1,0.2,0.2,0.2c0,0,0,0,0.1,0.1c0.1,0.1,0.1,0.1,0.2,0.1c0,0,0,0,0,0l6.1,4.1c0.8,0.5,1.8,0.3,2.4-0.5
		c0.5-0.8,0.3-1.8-0.5-2.4l-2-1.3c12.9-0.4,25.4,3.6,35.7,11.4c11.7,8.8,19.4,21.7,21.7,36.1c0.2,0.9,1,1.6,2,1.4
		c0.9-0.1,1.6-1,1.4-2c-2.4-15.3-10.6-28.9-23-38.3c-11-8.3-24.4-12.6-38-12.1l1.9-1.7c0.7-0.6,0.8-1.7,0.1-2.4
		c-0.6-0.7-1.7-0.8-2.4-0.1L110.4,5.5z"/>
	<path fill="#FFFFFF" d="M181.1,135.9v-12.3v-12.8V98.5v-3.9V81.3c0-4.6-3.7-8.4-8.4-8.4h-66.8c-1.5,0-2.6-1.2-2.6-2.6
		c0-1.5,1.2-2.6,2.6-2.6h20.4v-0.2c0-0.5,0.4-0.9,0.9-0.9h6.5c0.5,0,0.9,0.4,0.9,0.9v0.2h3.6v-0.2c0-0.5,0.4-0.9,0.9-0.9h6.5
		c0.5,0,0.9,0.4,0.9,0.9v0.2h7.8v-0.4c0-0.4,0.2-0.7,0.6-0.7h5.5c0.3,0,0.6,0.3,0.6,0.7v0.4h4.5h2.4h5.7c6.8,0,12.3,5.5,12.3,12.3
		v74.4c0,6.8-5.5,12.3-12.3,12.3h-31v0.6c0,0.4-0.3,0.7-0.7,0.7h-7.3c-0.4,0-0.7-0.3-0.7-0.7v-0.6h-28c-1.5,0-2.6-1.2-2.6-2.6v0
		c0-1.5,1.2-2.6,2.6-2.6h66.8c4.6,0,8.4-3.7,8.4-8.4v-13.2V135.9z"/>
</g>
</svg>
